<svg xmlns="http://www.w3.org/2000/svg" viewBox="0 0 64 64"><defs><radialGradient id="g" cx="50%" cy="60%" r="65%"><stop offset="0" stop-color="#3a3040"/><stop offset="1" stop-color="#1b1a22"/></radialGradient><linearGradient id="f" x1="0" x2="1"><stop offset="0" stop-color="#b07a32"/><stop offset=".5" stop-color="#ffe3a1"/><stop offset="1" stop-color="#b07a32"/></linearGradient><linearGradient id="s" x1="0" y1="0" x2="0" y2="1"><stop offset="0" stop-color="#fff1c4"/><stop offset="1" stop-color="#f5b04a"/></linearGradient></defs><rect width="64" height="64" rx="14" fill="url(#g)"/><path d="M20 12 C20 25 30 28 31 32 C30 36 20 39 20 52 L44 52 C44 39 34 36 33 32 C34 28 44 25 44 12 Z" fill="#fff1c4" fill-opacity=".08" stroke="#ffe3a1" stroke-width="1.6"/><path d="M21.5 13 H42.5 C42 18 38 21 35.5 23 H28.5 C26 21 22 18 21.5 13Z" fill="url(#s)"/><path d="M26 49 C28 44 36 44 38 49Z" fill="url(#s)" fill-opacity=".8"/><path d="M32 44 V24" stroke="#fff1c4" stroke-width="1.2" stroke-dasharray="1.5 2"/><rect x="16" y="9" width="32" height="3.6" rx="1.4" fill="url(#f)"/><rect x="16" y="51.4" width="32" height="3.6" rx="1.4" fill="url(#f)"/><circle cx="50" cy="16" r="1.1" fill="#ffd27a"/><circle cx="14" cy="44" r=".9" fill="#c9c4bc"/></svg>
